# xmcd
#
# Track frame offsets: 
#        150
#        15386
#        32507
#        48219
#        65843
#        70500
#        95087
#        108028
#        125637
#        140759
#        159502
#        178760
#
# Disc length: 2561 seconds
#
# Revision: 0
# Processed by: cddbd v1.5.2PL0 Copyright (c) Steve Scherf et al.
# Submitted via: ExactAudioCopy v0.99pb5
#
DISCID=9f09ff0c
DTITLE=Charles Bradley - No Time For Dreaming
DYEAR=2011
DGENRE=Blues
TTITLE0=The World (Is Going Up In Flames)
TTITLE1=The Telephone Song
TTITLE2=Golden Rule
TTITLE3=I Believe In Your Love
TTITLE4=Trouble Inb The Land
TTITLE5=Lovin´ You Baby
TTITLE6=No Time For Dreaming
TTITLE7=How Long
TTITLE8=In You (I Found A Love)
TTITLE9=Why Is It So Hard?
TTITLE10=Since Our Last Goodbye
TTITLE11=Heartaches And Pain
EXTD=
EXTT0=
EXTT1=
EXTT2=
EXTT3=
EXTT4=
EXTT5=
EXTT6=
EXTT7=
EXTT8=
EXTT9=
EXTT10=
EXTT11=
PLAYORDER=
